<?xml version="1.0" encoding="UTF-8" standalone="no"?> <svg width="101" height="101" viewBox="0 0 101 101" fill="none" xmlns="http://www.w3.org/2000/svg">
<g clip-path="url(#clip0_120_279)">
<path d="M68.28 71.7258C67.907 71.7258 67.534 71.5838 67.25 71.2988L30.691 34.7328C30.122 34.1638 30.122 33.2418 30.691 32.6728C31.26 32.1038 32.182 32.1038 32.75 32.6728L69.308 69.2398C69.877 69.8088 69.877 70.7308 69.308 71.2998C69.025 71.5828 68.652 71.7258 68.28 71.7258Z" fill="#231F20" stroke="black" stroke-width="2.2"/>
<path d="M31.721 71.7258C31.348 71.7258 30.976 71.5838 30.691 71.2998C30.122 70.7308 30.122 69.8088 30.691 69.2398L67.258 32.6728C67.827 32.1038 68.748 32.1038 69.317 32.6728C69.886 33.2418 69.886 34.1638 69.317 34.7328L32.75 71.2998C32.466 71.5828 32.094 71.7258 31.721 71.7258Z" fill="#231F20" stroke="black" stroke-width="2.2"/>
<path d="M50.008 100.004C22.433 100.004 0 77.576 0 50.008C0 22.434 22.433 0 50.008 0C77.574 0 100 22.434 100 50.008C100 77.575 77.574 100.004 50.008 100.004ZM50.008 2.912C24.039 2.912 2.913 24.039 2.913 50.007C2.913 75.969 24.04 97.09 50.008 97.09C75.968 97.09 97.087 75.968 97.087 50.007C97.088 24.039 75.968 2.912 50.008 2.912Z" fill="#231F20" stroke="black" stroke-width="2.2"/>
</g>
<defs>
<clipPath id="clip0_120_279">
<rect width="100.353" height="100.353" fill="white"/>
</clipPath>
</defs>
</svg>
